<?xml version="1.0" encoding="UTF-8"?>
<svg width="50px" height="48px" viewBox="0 0 50 48" version="1.1" xmlns="http://www.w3.org/2000/svg" xmlns:xlink="http://www.w3.org/1999/xlink">
    <!-- Generator: Sketch 55.2 (78181) - https://sketchapp.com -->
    <title>Group 3</title>
    <desc>Created with Sketch.</desc>
    <defs>
        <linearGradient x1="72.6424184%" y1="22.1032758%" x2="16.9331177%" y2="93.3911388%" id="linearGradient-1">
            <stop stop-color="#0BC3FF" offset="0%"></stop>
            <stop stop-color="#004EFF" offset="100%"></stop>
        </linearGradient>
        <filter x="-19.0%" y="-22.2%" width="138.1%" height="144.4%" filterUnits="objectBoundingBox" id="filter-2">
            <feOffset dx="0" dy="0" in="SourceAlpha" result="shadowOffsetOuter1"></feOffset>
            <feGaussianBlur stdDeviation="1" in="shadowOffsetOuter1" result="shadowBlurOuter1"></feGaussianBlur>
            <feColorMatrix values="0 0 0 0 0   0 0 0 0 0.108013307   0 0 0 0 0.340041893  0 0 0 0.25 0" type="matrix" in="shadowBlurOuter1" result="shadowMatrixOuter1"></feColorMatrix>
            <feMerge>
                <feMergeNode in="shadowMatrixOuter1"></feMergeNode>
                <feMergeNode in="SourceGraphic"></feMergeNode>
            </feMerge>
        </filter>
    </defs>
    <g id="Final-logos" stroke="none" stroke-width="1" fill="none" fill-rule="evenodd">
        <g id="Group-3">
            <path d="M48.915466,21.7527902 C49.898629,20.7917067 50.2470412,19.3811813 49.8215378,18.0699745 C49.3960345,16.7587677 48.2887245,15.8227647 46.9271137,15.6241274 L34.820792,13.8614722 C34.3041808,13.787234 33.859655,13.4621912 33.6283814,12.9946913 L28.2159785,2.00242445 C27.6092607,0.767462275 26.3748004,0 25.0001742,0 C23.6265492,0 22.3940912,0.767462275 21.7853711,2.00242445 L16.3729682,12.9956945 C16.1426958,13.4631944 15.6951664,13.7882373 15.1805576,13.8624754 L3.07423583,15.6261338 C1.71362623,15.8227647 0.604313918,16.7597709 0.177809364,18.0709777 C-0.246692822,19.3821845 0.101719349,20.7927099 1.08588361,21.7537934 L9.84524593,30.3092422 C10.2186877,30.675417 10.3898902,31.2001003 10.301786,31.7137483 L8.23434023,43.7945074 C8.05212467,44.8579192 8.33045393,45.8922376 9.01626525,46.7078544 C10.084529,47.9799356 11.946732,48.3661748 13.4364944,47.5816578 L24.2643037,41.8783597 C24.716839,41.6395937 25.2855118,41.6416001 25.7380471,41.8783597 L36.5658564,47.5816578 C37.0914782,47.8595494 37.6541438,48 38.2338296,48 C39.2920815,48 40.2952683,47.5284872 40.9850843,46.7078544 C41.672898,45.8922376 41.9502261,44.8559127 41.7660082,43.7945074 L39.6995636,31.7137483 C39.6114593,31.1990971 39.7826619,30.675417 40.1561036,30.3092422 L48.915466,21.7527902 Z" id="Fill-1-Copy-9" fill="url(#linearGradient-1)"></path>
            <g id="Group-5-Copy-4" filter="url(#filter-2)" transform="translate(14.000000, 18.000000)" fill="#FFFFFF">
                <path d="M20.3487261,13.3976348 L17.9591087,13.3976348 L17.9591087,9.15992609 C17.9591087,8.04071739 17.9056957,7.28225217 17.7988696,6.88535217 C17.6928652,6.48845217 17.5104391,6.19262609 17.252413,5.99705217 C16.9952087,5.80147826 16.6763739,5.7036913 16.2975522,5.7036913 C15.8061522,5.7036913 15.3837783,5.86721739 15.0320739,6.19262609 C14.6795478,6.51803478 14.4346696,6.96259565 14.2990826,7.52548696 C14.2275913,7.81556087 14.1922565,8.47870435 14.1922565,9.51491739 L14.1922565,13.3976348 L11.7845609,13.3976348 L11.7845609,0 L14.1922565,0 L14.1922565,4.70856522 C14.6655783,4.30016087 15.1430087,3.99365217 15.6229043,3.78986087 C16.1019783,3.58524783 16.5876261,3.48335217 17.0790261,3.48335217 C18.0388174,3.48335217 18.8474087,3.81451304 19.5048,4.47847826 C20.0676913,5.05205217 20.3487261,5.8968 20.3487261,7.01025652 L20.3487261,13.3976348 Z" id="Path"></path>
                <polygon id="Path" points="11.7837391 17.2548783 20.3479043 17.2548783 20.3479043 15.3073565 11.7837391 15.3073565"></polygon>
                <polygon id="Path" points="9.53381739 11.072113 1.03785652 16.0756826 2.66453526e-15 14.4387783 6.62321739 10.5264783 2.66453526e-15 6.52378696 1.03785652 4.88688261 9.53381739 10.1624478"></polygon>
            </g>
        </g>
    </g>
</svg>